<?xml version="1.0" standalone="no"?>
<!DOCTYPE svg PUBLIC "-//W3C//DTD SVG 20010904//EN"
 "http://www.w3.org/TR/2001/REC-SVG-20010904/DTD/svg10.dtd">
<svg version="1.0" xmlns="http://www.w3.org/2000/svg"
 width="400.000000pt" height="400.000000pt" viewBox="0 0 400.000000 400.000000"
 preserveAspectRatio="xMidYMid meet">
<metadata>
Created by potrace 1.11, written by Peter Selinger 2001-2013
</metadata>
<g transform="translate(0.000000,400.000000) scale(0.100000,-0.100000)"
fill="#000000" stroke="none">
<path d="M0 2542 l0 -1458 128 -56 c181 -80 372 -171 368 -175 -2 -2 -44 15
-92 37 -105 49 -349 158 -381 171 l-23 8 0 -534 0 -535 1947 1 c1078 1 1935 5
1918 10 -33 9 53 3 106 -8 l29 -6 0 86 0 86 -37 4 -38 4 37 1 38 2 0 186 -1
186 -32 -6 c-87 -16 -91 -16 -42 4 28 11 56 20 63 20 6 0 12 9 12 20 0 11 -5
20 -11 20 -12 0 -65 -8 -379 -55 -298 -44 -328 -48 -310 -36 8 5 36 13 62 16
26 4 48 12 48 18 0 9 2 9 8 1 7 -12 74 -4 425 47 l157 23 0 78 c0 51 -4 78
-11 78 -8 0 -7 5 1 15 19 22 8 26 -24 9 -16 -8 -31 -13 -33 -10 -2 2 12 11 32
20 20 10 35 24 35 34 0 10 -3 13 -8 7 -4 -6 -24 -21 -45 -33 -35 -20 -39 -20
-56 -5 -11 9 -17 23 -14 32 5 13 3 14 -8 4 -18 -18 -32 -16 -25 2 3 8 1 15 -3
15 -5 0 -11 -6 -14 -12 -11 -30 -17 4 -8 39 10 34 9 40 -11 56 l-22 18 27 -6
c17 -5 27 -3 27 4 0 14 -37 37 -74 45 -16 4 -36 16 -45 26 -24 28 -55 30 -57
3 -1 -13 -7 -30 -14 -38 -10 -12 -10 -19 -2 -27 7 -7 12 -16 12 -22 0 -6 -5
-5 -11 1 -6 6 -18 9 -25 6 -8 -3 -14 0 -14 7 0 6 -5 8 -10 5 -5 -3 -10 -2 -10
4 0 5 4 13 10 16 5 3 10 15 10 27 0 18 -2 19 -17 7 -15 -12 -16 -12 -10 4 4
10 7 23 7 28 0 5 5 8 12 6 6 -1 13 7 15 18 3 15 2 17 -5 6 -7 -9 -12 -10 -16
-2 -4 6 -14 11 -22 11 -8 0 -35 14 -62 31 -26 17 -39 28 -30 25 10 -3 20 0 24
6 4 7 9 6 15 -3 4 -7 11 -10 15 -6 8 7 -37 45 -45 38 -2 -1 -7 2 -11 9 -4 6
-18 12 -31 14 -13 1 -33 7 -44 13 -26 13 -125 33 -177 36 -17 0 -28 6 -28 15
0 9 -7 13 -20 9 -11 -3 -18 -1 -15 3 3 5 2 16 -2 26 -6 16 -7 16 -14 -2 -7
-17 -8 -17 -8 4 -1 18 -7 22 -31 22 -16 0 -39 4 -52 9 -47 19 -63 24 -70 23
-5 -1 -8 3 -8 8 0 6 -8 10 -19 10 -10 0 -24 7 -31 15 -10 13 -9 15 9 15 12 0
19 5 16 10 -3 5 0 10 7 11 7 0 3 4 -9 9 -13 6 -23 18 -23 30 0 13 -7 20 -20
20 -22 0 -27 15 -7 23 7 3 6 6 -5 6 -9 1 -20 -4 -23 -9 -4 -6 -15 -8 -25 -5
-9 3 -34 6 -54 7 -23 1 -36 6 -36 15 0 7 -4 13 -10 13 -5 0 -10 -7 -10 -15 0
-19 -7 -19 -27 0 -30 30 -2 34 124 17 44 -6 112 -10 150 -8 47 3 85 -2 125
-15 32 -11 82 -19 113 -19 31 0 71 -6 89 -14 23 -10 79 -14 177 -15 79 -1 157
-1 172 -1 15 -1 41 8 56 19 52 38 105 52 209 58 l72 5 0 224 c0 216 -1 226
-22 254 -16 22 -24 27 -30 18 -5 -9 -8 -4 -8 13 0 15 -7 32 -15 39 -8 7 -15
20 -15 29 0 19 44 88 72 112 16 15 18 36 18 241 l0 224 -47 -2 c-27 -1 -50 -3
-53 -4 -3 -1 -8 -2 -12 -1 -5 0 -8 -4 -8 -9 0 -6 -6 -10 -13 -10 -8 0 -22 -8
-31 -19 -9 -10 -35 -21 -56 -25 -22 -3 -40 -10 -40 -14 0 -4 -21 -14 -47 -21
-58 -17 -83 -32 -83 -48 0 -6 -4 -15 -10 -18 -6 -4 -7 1 -3 12 6 17 5 17 -14
0 -11 -9 -25 -17 -31 -17 -7 0 -12 -4 -12 -8 0 -4 -10 -8 -22 -9 -13 -1 -31
-12 -40 -23 -10 -12 -33 -26 -53 -31 -19 -6 -35 -16 -35 -23 0 -18 -26 -30
-75 -35 -18 -2 -19 -3 -2 -10 17 -6 17 -8 -1 -29 -10 -12 -21 -19 -24 -17 -3
3 -11 -1 -18 -10 -7 -8 -23 -15 -36 -15 -13 0 -24 -5 -24 -11 0 -5 -4 -8 -9
-5 -5 4 -11 3 -13 -1 -6 -15 -63 -40 -85 -38 -13 1 -23 -2 -23 -7 0 -4 5 -8
10 -8 7 0 7 -6 0 -20 -6 -10 -9 -25 -8 -32 2 -6 -3 -12 -10 -13 -7 0 -21 -10
-30 -21 -9 -12 -29 -29 -44 -39 -18 -11 -30 -29 -34 -53 -4 -21 -15 -48 -24
-62 -20 -30 -16 -58 6 -39 11 9 14 7 14 -9 0 -11 7 -33 15 -48 17 -33 22 -70
5 -44 -6 10 -12 11 -19 5 -11 -12 22 -145 45 -181 27 -41 53 -23 38 26 -4 13
-6 13 -14 0 -16 -27 -32 5 -34 69 l-2 61 17 -34 c31 -63 61 -97 127 -141 37
-25 60 -45 52 -45 -9 0 -31 11 -51 24 -34 24 -36 24 -47 5 -9 -14 -19 -18 -37
-13 -37 9 -30 -5 10 -22 49 -20 44 -34 -12 -36 -27 0 -61 -2 -78 -3 -37 -3
-62 9 -97 46 -24 26 -26 34 -21 81 5 37 3 49 -5 44 -8 -5 -12 0 -12 13 0 12 5
21 10 21 6 0 10 7 10 15 0 8 9 19 19 25 11 5 25 27 32 47 6 21 16 44 22 51 6
8 6 12 -2 12 -6 0 -14 -7 -17 -15 -4 -8 -10 -15 -15 -15 -4 0 -6 6 -3 14 3 9
0 14 -8 12 -22 -3 -78 -49 -78 -64 0 -18 -22 -40 -37 -35 -17 6 -26 -16 -13
-32 7 -8 11 -15 9 -16 -2 0 -13 -2 -23 -4 -10 -2 -23 -10 -27 -17 -7 -10 -9
-10 -9 2 -1 12 -4 11 -15 -4 -8 -11 -18 -17 -21 -13 -4 4 -13 2 -21 -4 -10 -9
-13 -8 -13 1 0 8 -8 10 -25 6 -22 -6 -25 -3 -25 18 0 13 -5 26 -11 28 -8 3 -9
13 -4 28 7 23 9 23 15 6 10 -31 17 -5 9 39 -5 30 -7 33 -8 13 0 -16 -5 -28
-10 -28 -5 0 -12 12 -14 28 -3 21 -4 19 -6 -11 0 -25 -5 -36 -12 -31 -7 4 -9
23 -5 52 7 54 0 52 -13 -4 l-9 -39 -2 40 -2 40 -11 -35 c-9 -30 -11 -32 -15
-12 -2 12 -7 20 -12 17 -5 -3 -21 -3 -35 1 -23 6 -24 8 -11 23 8 9 12 27 9 41
-3 20 2 29 25 42 16 10 32 15 36 11 3 -3 6 1 6 9 0 24 -24 28 -82 13 -47 -12
-53 -11 -64 3 -11 16 -14 16 -31 0 -21 -19 -73 -14 -86 8 -11 19 -37 17 -52
-3 -8 -11 -18 -14 -31 -9 -17 7 -16 10 14 37 l32 29 -25 0 c-16 0 -24 4 -20
11 8 12 -24 39 -40 33 -6 -3 -19 -20 -29 -38 -10 -19 -27 -37 -38 -39 -19 -5
-19 -5 -1 16 10 12 26 30 35 40 10 10 18 31 18 47 0 16 5 32 10 35 12 8 13 35
1 35 -5 0 -14 -12 -20 -27 -5 -16 -17 -39 -25 -53 -8 -14 -17 -33 -20 -42 -3
-10 -14 -18 -25 -18 -14 0 -23 -9 -27 -25 -7 -29 -7 -29 -35 -12 -17 9 -23 9
-26 0 -2 -7 -11 -9 -20 -6 -13 5 -15 1 -10 -25 7 -36 -11 -45 -28 -14 -44 80
-67 96 -104 73 -11 -7 -7 -13 18 -25 33 -18 33 -36 0 -36 -10 0 -19 -4 -19
-10 0 -15 -43 -22 -70 -11 -19 7 -20 10 -7 10 10 1 15 6 12 11 -3 6 4 14 17
19 20 8 21 10 5 16 -24 10 -60 -1 -103 -30 -31 -21 -33 -25 -15 -25 29 0 27
-18 -4 -30 -26 -10 -55 -4 -55 11 0 5 -10 9 -23 9 -13 0 -32 7 -43 15 -26 20
-33 19 -27 -5 3 -11 0 -20 -6 -20 -6 0 -11 9 -11 20 0 11 -5 17 -12 15 -16 -6
-30 4 -44 29 -12 23 -51 31 -70 15 -10 -8 -14 -8 -14 0 0 6 -7 11 -15 11 -8 0
-15 6 -15 13 0 9 -3 8 -9 -2 -6 -9 -11 -10 -15 -2 -4 6 -20 11 -37 11 -23 0
-29 4 -29 21 0 11 -4 18 -9 14 -10 -6 -62 14 -72 28 -4 5 -48 12 -98 15 -50 2
-91 8 -91 12 0 12 42 20 80 15 113 -14 152 -15 148 -4 -3 9 -25 14 -105 21 -7
1 -13 4 -13 8 0 4 -18 7 -40 7 -22 0 -40 -5 -40 -11 0 -7 -3 -6 -8 1 -4 7 -23
15 -42 18 -89 15 -105 21 -107 40 -2 11 0 14 3 8 8 -17 24 -16 24 1 0 15 -29
25 -75 27 -16 0 -46 7 -65 14 -35 13 -35 14 23 9 35 -3 57 -1 57 6 0 5 -3 9
-8 9 -4 -1 -9 0 -12 1 -7 2 -37 8 -89 15 -57 9 -81 24 -81 54 0 21 3 23 33 17
17 -4 40 -8 50 -9 9 -1 17 -5 17 -9 0 -4 10 -8 23 -8 20 1 19 2 -8 18 -16 9
-43 21 -60 27 -16 5 -30 17 -31 25 0 8 -8 30 -17 47 -11 20 -15 42 -11 58 6
25 24 35 24 13 0 -6 3 -8 7 -5 3 4 12 2 20 -4 7 -6 13 -7 13 -2 0 5 -19 20
-42 33 -53 30 -34 38 23 11 51 -25 55 -26 40 -7 -10 12 -5 13 26 10 106 -10
118 -10 117 8 -1 11 5 15 17 13 33 -7 21 12 -18 28 -21 9 -31 16 -23 17 10 0
4 9 -15 25 -34 27 -27 33 10 9 28 -19 34 -8 8 12 -10 8 5 5 32 -7 28 -11 58
-28 69 -37 18 -17 18 -16 1 18 -10 19 -23 39 -29 43 -7 5 -6 7 4 6 32 -3 42 1
36 16 -8 21 21 19 33 -2 8 -15 11 -15 28 -3 10 8 15 10 11 6 -4 -5 0 -15 10
-23 12 -10 14 -16 5 -19 -15 -7 -17 -34 -3 -34 6 0 10 4 10 10 0 5 20 2 44 -7
25 -9 43 -20 41 -23 -2 -3 11 -14 28 -23 18 -10 38 -27 45 -37 11 -17 10 -20
-7 -20 -11 0 -22 4 -25 9 -7 11 -46 2 -46 -10 0 -9 26 -13 65 -11 64 4 78 13
68 49 -6 26 -8 26 34 14 26 -8 35 -6 42 6 7 14 11 12 25 -9 9 -14 26 -28 36
-31 14 -3 20 -14 20 -31 0 -15 7 -29 15 -32 8 -4 15 -11 15 -18 0 -6 9 -17 21
-24 13 -8 18 -19 15 -29 -8 -20 21 -53 46 -53 13 0 18 -6 16 -17 -6 -28 53
-64 91 -57 30 6 41 19 21 26 -5 2 -11 17 -13 33 -2 17 -6 36 -10 42 -4 6 5 25
19 42 21 25 22 30 7 25 -15 -5 -15 -4 -3 5 8 6 18 11 21 11 8 0 22 -40 20 -56
-1 -7 6 -14 14 -18 9 -3 20 -16 26 -28 l10 -23 -5 23 c-3 14 1 22 10 22 11 0
12 4 4 19 -14 26 -13 31 6 31 8 0 12 -4 9 -10 -3 -6 3 -10 14 -10 12 0 21 -4
21 -10 0 -14 13 -13 33 3 15 11 14 17 -7 77 -13 36 -29 96 -36 133 -7 37 -19
74 -26 82 -8 7 -14 17 -14 20 0 4 -6 21 -14 38 -8 18 -18 46 -23 62 -7 22 -16
30 -34 31 -22 1 -24 -2 -23 -45 1 -25 9 -64 18 -86 20 -44 35 -217 19 -200
-10 9 -36 132 -50 235 -6 45 -7 55 -3 175 l3 65 33 -28 c18 -15 33 -31 33 -35
1 -4 12 -25 26 -45 14 -20 25 -44 25 -54 0 -10 9 -34 20 -54 12 -20 19 -39 16
-41 -3 -3 4 -23 15 -44 19 -39 51 -168 44 -180 -3 -3 7 -11 20 -17 33 -15 37
-4 20 63 -8 31 -13 61 -9 66 3 5 1 9 -4 9 -5 0 -15 20 -21 44 -6 24 -14 52
-18 62 -6 18 -6 18 15 0 12 -11 22 -24 22 -31 0 -6 8 -20 18 -31 10 -11 22
-32 26 -48 12 -47 31 -24 29 34 -2 43 1 56 17 67 27 19 27 63 0 63 -15 0 -20
-7 -20 -25 0 -31 -11 -32 -30 -4 -27 39 -43 51 -61 46 -11 -3 -22 -1 -25 4 -3
5 2 9 11 9 9 0 13 5 9 11 -3 6 -14 9 -24 6 -14 -4 -16 1 -13 27 11 91 10 116
-8 116 -9 0 -19 7 -23 15 -3 8 -10 15 -15 15 -6 0 0 -18 11 -40 19 -36 20 -42
7 -67 l-14 -27 -3 30 c-2 16 -7 34 -12 39 -4 6 -11 24 -14 41 -6 27 -16 36
-66 58 -33 15 -88 32 -122 38 -35 6 -81 21 -103 34 -22 13 -65 29 -95 35 -45
9 -63 21 -102 60 -27 27 -48 55 -48 62 0 27 27 48 65 54 35 4 46 0 85 -31 32
-25 59 -38 93 -42 27 -4 66 -19 90 -35 23 -16 65 -33 94 -39 28 -6 63 -20 76
-30 14 -11 45 -29 70 -39 53 -23 66 -42 62 -91 -3 -45 7 -65 45 -84 28 -13 32
-13 37 1 8 21 -9 46 -37 53 -21 5 -22 6 -5 20 25 21 86 14 110 -14 11 -13 28
-26 38 -29 14 -5 17 -1 17 27 0 49 10 50 33 5 21 -43 42 -58 58 -42 7 7 19 2
37 -15 16 -17 27 -22 30 -14 4 14 32 16 32 2 0 -5 -5 -10 -11 -10 -8 0 -7 -5
2 -16 10 -13 10 -17 0 -24 -10 -5 -10 -9 -2 -11 9 -3 9 -12 3 -29 -12 -32 -5
-50 18 -50 14 0 22 11 30 43 6 23 15 54 20 69 6 18 5 29 -3 32 -7 3 -2 3 10 0
13 -3 23 -1 23 5 0 6 9 11 21 11 15 0 19 -4 15 -16 -3 -9 -6 -22 -6 -29 0 -8
-14 -30 -31 -50 -27 -30 -31 -41 -26 -72 8 -50 14 -52 48 -15 39 42 50 40 37
-4 -17 -63 7 -57 70 19 35 43 60 109 53 141 -1 5 1 16 4 24 4 11 8 12 20 2 25
-21 19 -105 -10 -148 -14 -20 -25 -43 -25 -52 0 -22 43 26 72 80 56 107 102
156 119 128 7 -10 9 -8 9 6 0 13 5 17 20 13 14 -4 31 4 53 24 17 16 35 29 40
29 4 0 6 4 3 9 -3 5 1 12 10 15 22 9 24 8 24 -10 0 -8 4 -13 9 -10 5 4 4 -8
-2 -25 -7 -18 -23 -39 -37 -47 -14 -9 -33 -23 -44 -31 -17 -15 -17 -16 10 -22
31 -6 64 11 123 65 l34 31 -21 -37 c-12 -21 -17 -38 -11 -38 6 0 3 -10 -5 -21
-15 -22 -12 -49 6 -49 5 0 6 4 3 10 -3 5 0 7 8 4 8 -3 18 -1 22 5 11 19 27 12
20 -8 -5 -16 -2 -18 17 -14 13 3 29 10 36 16 15 12 16 2 2 -24 -16 -28 -4 -23
43 19 23 21 60 49 82 62 l40 23 -47 -46 c-25 -25 -44 -48 -41 -50 5 -6 145 43
182 62 11 7 21 16 21 21 0 6 5 10 10 10 7 0 7 -6 0 -20 -15 -28 13 -27 39 1
11 12 31 27 46 35 22 11 27 11 31 0 5 -14 44 -10 44 4 0 9 62 40 79 40 7 0 5
-10 -5 -25 -18 -28 -8 -33 22 -10 26 20 34 19 34 -6 0 -16 5 -20 20 -16 12 3
23 -1 29 -10 5 -11 17 -14 34 -11 26 5 26 4 22 -40 -3 -40 -2 -42 10 -26 7 11
9 21 4 22 -5 2 -9 8 -9 14 0 6 7 5 16 -3 13 -10 17 -10 25 2 5 8 9 9 9 3 0
-14 -20 -38 -50 -58 -25 -16 -14 -21 27 -10 13 4 20 11 16 20 -3 8 -1 14 5 14
5 0 22 10 36 21 21 17 25 24 14 30 -10 6 -10 11 0 21 9 9 12 9 12 -1 0 -7 4
-10 9 -7 5 3 7 15 4 25 -5 19 13 38 25 26 3 -3 0 -10 -8 -15 -12 -8 -10 -10 8
-10 25 0 26 -3 11 -33 -12 -21 -11 -21 13 -5 19 13 28 14 37 5 6 -6 11 -7 11
-3 0 5 7 3 15 -4 12 -10 19 -10 27 -2 19 19 30 14 18 -8 -8 -15 -8 -20 1 -20
6 0 9 -7 5 -17 -5 -15 -3 -15 9 1 8 11 13 28 9 38 -6 22 11 24 20 3 3 -8 10
-15 16 -15 7 0 10 160 10 490 l0 490 -2000 0 -2000 0 0 -1458z m786 1087 c3
-6 -2 -20 -13 -30 -16 -16 -24 -18 -46 -10 -33 13 -35 35 -5 55 22 15 49 9 64
-15z m1579 -35 c14 -9 25 -13 25 -9 0 4 7 2 15 -5 11 -9 12 -16 4 -26 -8 -9
-5 -18 10 -33 12 -12 21 -29 21 -39 0 -24 26 -47 71 -61 24 -8 46 -26 64 -51
15 -22 33 -40 39 -41 6 -1 26 -2 44 -4 33 -3 50 -11 40 -20 -2 -3 -43 -7 -91
-10 -73 -4 -89 -2 -104 12 -10 10 -35 26 -55 37 -26 13 -39 27 -43 48 -5 21
-17 34 -40 44 -23 9 -41 29 -60 66 -15 29 -35 58 -43 64 -9 6 -13 18 -9 28 8
21 79 22 112 0z m-1404 -22 c28 -23 20 -48 -18 -63 -57 -22 -125 41 -75 70 27
16 68 13 93 -7z m148 -73 c20 -19 21 -23 8 -42 -18 -28 -57 -33 -96 -12 -35
18 -38 30 -14 57 22 24 74 23 102 -3z m2686 -70 c-42 -28 -155 -81 -165 -77
-21 7 11 31 86 63 90 38 123 45 79 14z m-521 -194 c-9 -14 -21 -25 -27 -25 -6
0 0 11 13 25 13 14 25 25 27 25 2 0 -4 -11 -13 -25z m-569 -85 c-10 -11 -20
-18 -23 -15 -3 3 3 14 13 25 10 11 20 18 23 15 3 -3 -3 -14 -13 -25z m-1535
-97 c42 -41 58 -43 31 -4 -30 42 -25 52 7 15 33 -38 68 -58 77 -44 3 5 17 10
31 10 20 0 24 -4 20 -24 -4 -20 -1 -23 16 -18 13 3 16 7 8 12 -9 6 -7 13 8 28
11 11 22 26 25 33 4 11 8 10 19 -5 9 -11 20 -16 27 -12 7 5 10 2 9 -6 -3 -14
11 -15 52 -5 14 4 19 4 12 1 -18 -8 -4 -24 15 -17 11 4 14 2 11 -8 -3 -9 -19
-14 -46 -14 -22 0 -47 -6 -53 -12 -11 -11 -10 -13 3 -13 9 0 20 5 23 10 3 6
12 10 19 10 17 0 29 -41 16 -54 -15 -15 -12 -46 5 -52 8 -4 15 -10 15 -15 0
-5 -11 -4 -24 3 -19 8 -24 17 -23 42 2 17 6 37 11 45 6 9 5 12 -5 9 -7 -2 -16
-15 -19 -27 -3 -12 -9 -23 -15 -24 -5 -1 -9 -7 -9 -14 1 -6 -5 -9 -13 -6 -8 3
-20 -3 -28 -13 -14 -18 -14 -18 -15 4 0 14 -18 40 -46 68 -55 52 -69 51 -25
-3 21 -25 27 -39 19 -44 -8 -5 -3 -18 15 -43 15 -19 27 -42 27 -50 0 -9 9 -21
20 -28 28 -18 25 -28 -10 -28 -19 0 -33 6 -37 16 -8 21 -127 97 -131 84 -6
-16 -22 -12 -22 6 0 8 -4 13 -9 9 -5 -3 -12 -1 -16 5 -3 5 -18 10 -32 10 -18
0 -24 -4 -19 -15 9 -25 -20 -17 -32 9 -8 19 -8 25 3 30 8 3 15 0 18 -7 2 -6 6
-7 9 -2 3 6 -3 19 -14 30 -15 15 -18 16 -13 3 4 -11 0 -18 -13 -22 -20 -7 -39
-36 -23 -36 5 0 11 6 13 12 3 7 7 3 10 -8 4 -18 2 -21 -15 -16 -15 4 -19 1
-14 -10 6 -17 -23 -20 -35 -4 -3 5 -15 10 -25 11 -34 2 -46 15 -31 32 11 14
10 15 -10 9 -16 -5 -22 -3 -22 7 0 8 -7 14 -16 13 -9 0 -19 5 -22 13 -3 10 0
11 9 5 11 -6 12 -5 2 7 -10 13 -10 16 2 16 8 0 16 -6 19 -14 3 -7 18 -13 33
-13 17 0 23 3 16 8 -9 6 -5 16 12 37 22 26 26 28 35 14 5 -9 22 -24 37 -34
l28 -18 -27 30 c-26 27 -40 82 -19 68 5 -3 13 -1 16 5 5 8 12 7 23 -2 13 -11
14 -11 7 2 -6 8 -10 18 -10 22 0 3 -4 10 -9 15 -5 5 -6 2 -1 -6 5 -9 4 -12 -3
-7 -15 9 -15 26 -1 26 6 0 25 -10 42 -22 29 -21 30 -21 23 -2 -4 10 -10 30
-12 44 -4 24 -4 24 14 -5 10 -16 34 -45 52 -62z m2267 73 c5 -5 -50 -36 -63
-36 -4 0 1 7 12 15 19 14 19 14 -1 15 -16 0 -17 2 -6 9 14 9 48 7 58 -3z m118
4 c-3 -5 -11 -10 -16 -10 -6 0 -7 5 -4 10 3 6 11 10 16 10 6 0 7 -4 4 -10z
m-1077 -22 c16 -16 15 -29 -2 -22 -16 6 -30 34 -18 34 5 0 13 -5 20 -12z
m1459 -18 c8 -11 9 -21 3 -25 -8 -5 -30 24 -30 39 0 13 16 5 27 -14z m-2658
-38 c7 -7 11 -15 8 -18 -5 -5 -57 42 -57 53 0 6 24 -11 49 -35z m1756 -2 c-3
-5 -11 -10 -16 -10 -6 0 -7 5 -4 10 3 6 11 10 16 10 6 0 7 -4 4 -10z m695 -10
c0 -5 -4 -10 -10 -10 -5 0 -10 5 -10 10 0 6 5 10 10 10 6 0 10 -4 10 -10z
m-2770 -25 c11 -13 10 -14 -4 -9 -12 5 -16 0 -16 -16 0 -17 -4 -21 -17 -15
-10 4 -28 10 -40 12 -31 7 -29 21 3 17 15 -1 28 3 31 12 7 18 27 18 43 -1z
m2040 5 c0 -5 -5 -10 -11 -10 -5 0 -7 5 -4 10 3 6 8 10 11 10 2 0 4 -4 4 -10z
m-2225 -60 c3 -5 -1 -10 -9 -10 -23 0 -19 -21 4 -27 28 -7 19 -29 -11 -26 -51
5 -57 7 -51 21 4 11 0 13 -16 7 -23 -7 -27 1 -13 24 6 9 18 11 34 7 14 -3 29
-2 32 4 8 13 22 13 30 0z m-125 -40 c0 -5 -2 -10 -4 -10 -3 0 -8 5 -11 10 -3
6 -1 10 4 10 6 0 11 -4 11 -10z m164 -34 c-4 -19 1 -28 26 -46 17 -12 29 -24
26 -27 -3 -3 -17 4 -32 16 -15 11 -34 21 -43 21 -14 0 -14 2 -1 10 10 6 11 10
3 10 -9 0 -7 7 4 20 22 26 25 25 17 -4z m549 10 c4 -10 1 -13 -8 -9 -8 3 -12
9 -9 14 7 12 11 11 17 -5z m-668 -15 c14 -9 15 -11 3 -7 -9 3 -19 0 -22 -7 -5
-9 -7 -9 -12 1 -3 6 -12 12 -19 12 -8 0 -16 4 -19 8 -8 13 47 7 69 -7z m155
-11 c0 -5 -4 -10 -10 -10 -5 0 -10 5 -10 10 0 6 5 10 10 10 6 0 10 -4 10 -10z
m90 -8 c0 -5 -7 -9 -15 -9 -8 0 -12 4 -9 9 3 4 9 8 15 8 5 0 9 -4 9 -8z m-215
-42 c3 -5 1 -10 -4 -10 -6 0 -11 5 -11 10 0 6 2 10 4 10 3 0 8 -4 11 -10z
m852 -232 c-3 -7 -5 -2 -5 12 0 14 2 19 5 13 2 -7 2 -19 0 -25z m-797 -289 c0
-16 -17 -18 -35 -5 -17 13 -17 14 8 14 15 0 27 -4 27 -9z m-174 -67 c35 -28
36 -47 3 -49 -23 -2 -29 2 -29 17 0 10 -7 26 -16 34 -14 15 -14 16 3 16 10 0
27 -8 39 -18z m2917 3 c31 -22 14 -53 -28 -52 -35 1 -45 10 -25 22 6 4 7 11 4
17 -4 6 0 14 7 19 18 11 21 11 42 -6z m-2733 -4 c0 -5 -9 -7 -20 -4 -11 3 -20
7 -20 9 0 2 9 4 20 4 11 0 20 -4 20 -9z m60 -1 c0 -5 -4 -10 -10 -10 -5 0 -10
5 -10 10 0 6 5 10 10 10 6 0 10 -4 10 -10z m-80 -72 c0 -5 -8 -8 -17 -7 -10 0
-13 3 -6 5 7 3 9 13 6 22 -4 15 -3 15 6 2 6 -8 11 -18 11 -22z m17 -60 c7 -6
13 -18 14 -27 0 -9 3 -11 5 -6 5 13 84 7 84 -6 0 -6 -6 -9 -12 -8 -31 4 -48
-2 -48 -17 0 -12 4 -14 13 -6 16 13 79 5 89 -11 4 -6 5 -18 3 -26 -3 -8 0 -18
7 -22 7 -4 9 -11 5 -16 -5 -4 -12 -1 -18 7 -8 13 -10 13 -18 0 -8 -12 -14 -11
-36 10 -19 18 -24 20 -19 7 3 -9 2 -17 -4 -17 -5 0 -12 7 -16 15 -4 11 -11 13
-30 5 -21 -8 -28 -6 -37 11 -7 14 -17 19 -30 16 -10 -3 -19 -1 -19 4 0 5 -8 9
-17 9 -25 0 -91 42 -75 47 18 7 14 33 -5 33 -14 0 -15 2 -5 9 18 11 153 2 169
-11z m423 8 c0 -3 -4 -8 -10 -11 -5 -3 -10 -1 -10 4 0 6 5 11 10 11 6 0 10 -2
10 -4z m137 -53 c-3 -10 -5 -4 -5 12 0 17 2 24 5 18 2 -7 2 -21 0 -30z m37 -8
c-3 -7 5 -15 17 -18 13 -4 20 -9 16 -13 -4 -4 -1 -14 5 -23 10 -13 10 -14 -2
-3 -16 14 -34 16 -26 3 3 -5 -2 -12 -11 -15 -11 -5 -23 1 -35 16 -16 21 -18
21 -18 4 0 -20 0 -20 -15 0 -12 15 -16 16 -24 5 -6 -9 -11 -10 -15 -2 -10 15
-29 14 -20 -1 5 -10 4 -10 -6 -1 -15 14 -3 36 16 29 9 -4 14 2 14 17 1 18 2
19 10 7 14 -24 63 -19 75 7 10 23 27 11 19 -12z m591 -5 c3 -5 1 -10 -4 -10
-6 0 -11 5 -11 10 0 6 2 10 4 10 3 0 8 -4 11 -10z m-1005 -26 c0 -8 -4 -12
-10 -9 -5 3 -10 10 -10 16 0 5 5 9 10 9 6 0 10 -7 10 -16z m467 -6 c-3 -8 -6
-5 -6 6 -1 11 2 17 5 13 3 -3 4 -12 1 -19z m648 12 c-3 -5 -11 -10 -16 -10 -6
0 -7 5 -4 10 3 6 11 10 16 10 6 0 7 -4 4 -10z m-1315 -63 c0 -5 -4 -5 -10 -2
-5 3 -10 14 -10 23 0 15 2 15 10 2 5 -8 10 -19 10 -23z m207 1 c-3 -8 -6 -5
-6 6 -1 11 2 17 5 13 3 -3 4 -12 1 -19z m2543 -19 c7 -16 16 -29 21 -29 5 0 7
-6 5 -12 -1 -7 -1 -10 2 -5 2 4 13 12 24 18 18 10 19 9 7 -13 -12 -22 -11 -22
6 -8 17 13 18 13 13 -2 -5 -11 0 -18 13 -21 10 -3 19 -11 19 -17 0 -7 -6 -10
-13 -7 -10 4 -13 -2 -9 -19 l4 -24 18 20 18 21 7 -20 c6 -21 15 -25 48 -22 12
2 17 -5 17 -23 0 -14 4 -26 10 -26 5 0 8 6 6 13 -12 36 -16 67 -9 66 24 -4 35
3 29 19 -5 14 -4 14 9 -2 8 -11 15 -23 15 -28 0 -4 11 -8 25 -8 19 0 23 -4 18
-17 -5 -12 -3 -14 7 -8 8 5 11 4 6 -3 -3 -6 1 -18 10 -26 12 -13 12 -16 2 -16
-8 0 -20 6 -28 13 -8 6 -4 0 9 -15 26 -29 23 -35 -10 -18 -10 6 -19 19 -19 30
0 24 -18 36 -26 16 -6 -14 28 -56 45 -56 19 0 22 -20 7 -42 -9 -12 -16 -18
-16 -13 0 10 -20 -15 -20 -26 0 -6 81 -3 109 5 12 3 30 9 41 12 11 3 20 1 20
-4 0 -13 -46 -32 -78 -32 -15 0 -70 -11 -122 -24 -97 -24 -195 -32 -204 -17
-3 5 -89 8 -191 7 -102 0 -185 2 -185 7 0 4 4 7 9 7 5 0 12 8 15 18 7 20 29
21 94 7 17 -4 32 -4 32 -1 0 4 -24 32 -54 62 -66 66 -75 87 -45 108 20 14 20
16 5 31 -20 21 -20 26 1 18 11 -4 14 -3 9 6 -6 9 8 12 58 10 56 -2 70 1 89 19
13 12 28 22 34 22 6 0 13 9 16 20 3 11 0 20 -6 20 -6 0 -2 7 9 15 18 14 18 14
-4 15 -13 0 -21 4 -18 8 2 4 22 6 44 4 33 -3 42 -9 52 -33z m-2710 1 c0 -5 -7
-7 -15 -4 -8 4 -12 10 -9 15 6 11 24 2 24 -11z m-122 -27 c28 -13 52 -29 52
-34 0 -5 12 -12 28 -15 15 -4 29 -10 32 -13 9 -11 64 -46 75 -47 6 -1 18 -2
28 -3 35 -2 16 -21 -22 -21 -22 0 -43 -5 -46 -10 -4 -7 2 -9 19 -4 28 7 86
-15 86 -32 0 -12 -88 -50 -96 -41 -3 2 7 19 22 36 29 35 26 35 -63 -5 -29 -13
-53 -28 -53 -33 0 -5 -9 -13 -21 -16 -16 -5 -18 -10 -8 -21 6 -8 17 -14 23
-13 7 0 6 2 -1 6 -18 7 -16 23 2 23 8 0 15 -5 15 -11 0 -7 9 -9 21 -6 15 4 19
2 15 -9 -4 -11 -1 -14 13 -9 12 3 21 0 24 -9 4 -10 1 -13 -9 -9 -7 3 -14 0
-14 -7 0 -9 -4 -9 -13 -2 -8 7 -18 7 -27 2 -8 -6 -22 -9 -30 -9 -12 0 -11 2 2
7 15 6 13 9 -8 19 -22 10 -24 10 -14 -3 10 -11 10 -14 1 -14 -7 0 -9 -4 -6
-10 3 -6 -5 -10 -19 -10 -14 0 -28 5 -31 10 -3 6 -12 10 -18 10 -7 0 -3 -7 7
-15 27 -21 16 -27 -49 -29 -30 0 -55 -5 -55 -10 0 -5 -7 -3 -15 4 -8 7 -15 9
-15 5 0 -4 -7 -2 -15 5 -21 18 -19 29 5 23 12 -3 20 0 20 7 0 7 8 9 19 5 15
-5 18 -1 13 22 -2 16 -12 37 -20 48 -16 19 -15 19 2 4 17 -16 20 -16 37 -1 26
23 24 35 -6 30 -17 -4 -25 -1 -25 9 0 8 5 11 10 8 6 -3 10 -1 10 6 0 6 18 28
40 48 43 38 43 45 -5 75 -17 11 -24 21 -17 24 13 4 17 23 5 21 -5 -1 -15 -1
-23 0 -12 1 -11 4 3 12 15 9 16 13 5 26 -11 14 -9 15 22 8 19 -4 59 -18 88
-32z m352 27 c0 -5 -7 -7 -15 -4 -8 4 -15 8 -15 10 0 2 7 4 15 4 8 0 15 -4 15
-10z m140 -22 c0 -6 -7 -8 -15 -4 -8 3 -15 1 -15 -4 0 -6 -4 -10 -10 -10 -22
0 -90 -36 -90 -47 0 -7 -8 -13 -17 -13 -13 0 -6 12 24 41 25 23 48 37 54 33 7
-4 9 -3 5 4 -3 6 3 12 16 14 29 5 48 -1 48 -14z m2650 -82 c0 -4 -6 -3 -13 3
-8 6 -16 9 -19 6 -2 -3 -5 1 -5 9 0 11 4 12 19 3 10 -7 18 -16 18 -21z m-2521
-33 c2 -2 -5 -3 -17 -3 -14 0 -22 6 -22 16 0 14 3 15 18 3 9 -7 19 -15 21 -16z
m1251 7 c0 -5 -5 -10 -11 -10 -5 0 -7 5 -4 10 3 6 8 10 11 10 2 0 4 -4 4 -10z
m-1550 -110 c8 -5 11 -10 5 -10 -5 0 -17 5 -25 10 -8 5 -10 10 -5 10 6 0 17
-5 25 -10z m-200 -18 c0 -5 -7 -9 -15 -9 -8 0 -12 4 -9 9 3 4 9 8 15 8 5 0 9
-4 9 -8z m1936 -5 c3 -3 -14 -8 -38 -12 -24 -4 -52 -15 -62 -24 -15 -13 -18
-13 -11 -1 5 9 0 8 -13 -4 -16 -14 -22 -15 -22 -6 0 9 -5 7 -14 -6 -12 -15
-17 -16 -25 -7 -6 7 -8 11 -4 8 3 -3 14 8 24 25 11 18 24 27 33 24 8 -3 16 -2
19 3 5 9 104 9 113 0z m1124 3 c0 -5 -4 -10 -10 -10 -5 0 -10 5 -10 10 0 6 5
10 10 10 6 0 10 -4 10 -10z m-2996 -85 c3 -8 1 -15 -3 -15 -5 0 -11 7 -15 15
-3 8 -1 15 3 15 5 0 11 -7 15 -15z m-64 -20 c11 -13 10 -14 -4 -9 -9 3 -16 10
-16 15 0 13 6 11 20 -6z m34 -15 c-6 -6 -10 -2 -11 12 -2 16 1 18 10 9 7 -7 8
-14 1 -21z m1956 26 c0 -3 -4 -8 -10 -11 -5 -3 -10 -1 -10 4 0 6 5 11 10 11 6
0 10 -2 10 -4z m-2310 -26 c0 -5 -2 -10 -4 -10 -3 0 -8 5 -11 10 -3 6 -1 10 4
10 6 0 11 -4 11 -10z m177 -32 c-3 -8 -6 -5 -6 6 -1 11 2 17 5 13 3 -3 4 -12
1 -19z m2050 -123 c1 -16 -1 -22 -3 -12 -3 9 -10 17 -16 17 -5 0 -8 -6 -5 -14
6 -16 -31 -27 -112 -31 -30 -2 -64 -6 -76 -9 -17 -4 -21 -1 -20 15 2 34 99 67
190 65 37 -1 40 -3 42 -31z m-124 -57 c4 -10 8 -9 16 2 7 10 11 11 11 3 0 -7
7 -10 15 -7 9 4 15 0 15 -7 0 -11 2 -11 10 1 5 8 12 11 17 7 10 -10 -12 -43
-26 -39 -14 3 -14 -15 -1 -23 6 -3 10 0 10 7 1 9 5 7 14 -4 7 -10 19 -18 25
-18 7 0 11 -6 9 -12 -6 -18 -46 -22 -64 -7 -12 10 -13 9 -8 -4 3 -9 24 -20 45
-24 l40 -8 -22 -19 c-18 -15 -21 -16 -16 -2 4 9 2 16 -3 16 -5 0 -10 -8 -12
-17 -2 -13 -14 -16 -56 -16 -36 1 -52 -2 -49 -10 2 -7 12 -11 22 -9 9 2 24 0
34 -4 23 -10 44 -11 59 0 8 6 12 3 12 -8 0 -15 17 -21 48 -17 13 2 16 -27 6
-54 -5 -13 -8 -14 -15 -3 -7 10 -9 10 -9 1 0 -8 -15 -13 -41 -13 -32 0 -42 -4
-46 -20 -6 -21 -25 -28 -20 -7 1 7 -10 13 -25 15 -16 2 -28 -1 -28 -7 0 -6 10
-11 21 -11 18 0 20 -2 9 -16 -11 -13 -10 -16 8 -21 12 -3 22 -13 23 -22 0 -12
2 -12 8 4 8 19 8 19 20 0 9 -15 14 -17 18 -6 5 11 7 11 14 0 8 -12 11 -11 19
1 7 11 10 11 10 2 0 -10 20 -12 90 -7 91 7 104 3 73 -21 -16 -12 -12 -14 32
-15 28 -1 53 -1 58 0 4 0 7 -5 7 -13 0 -18 22 -26 49 -19 14 3 21 1 21 -9 0
-7 -10 -14 -22 -15 -54 -4 -89 -15 -85 -26 2 -7 12 -12 23 -12 12 0 20 -8 22
-22 3 -17 10 -23 28 -23 17 0 24 -5 22 -16 -2 -12 11 -20 52 -31 30 -9 64 -17
75 -18 31 -5 31 -6 7 -16 -13 -5 -20 -13 -17 -19 4 -6 11 -7 17 -4 6 4 14 0
19 -7 8 -12 11 -12 19 1 8 13 10 12 10 -2 0 -10 5 -18 10 -18 6 0 11 8 11 18
1 16 2 16 6 0 2 -10 10 -18 17 -18 7 0 21 -6 32 -14 15 -12 17 -17 7 -27 -11
-11 -13 -10 -13 1 0 11 -3 11 -12 2 -6 -6 -18 -8 -27 -4 -9 4 -23 7 -32 7 -18
0 -49 -28 -49 -44 0 -6 -4 -11 -8 -11 -17 0 -21 13 -11 31 6 13 6 19 -1 19 -5
0 -10 -6 -11 -12 0 -10 -2 -10 -6 0 -7 17 -23 15 -23 -3 0 -8 5 -15 10 -15 6
0 10 -5 10 -11 0 -8 -18 -10 -60 -6 -62 7 -84 -6 -29 -17 17 -3 28 -10 24 -16
-8 -13 -62 -13 -70 1 -4 6 -13 8 -21 5 -16 -6 -29 10 -14 19 5 3 10 11 10 17
0 7 -4 7 -13 -1 -10 -8 -19 -7 -33 4 -18 14 -17 14 14 15 51 0 37 17 -25 30
-32 7 -64 15 -73 17 -8 3 0 -4 18 -16 34 -22 47 -60 15 -42 -10 5 -37 9 -60 9
-23 1 -51 6 -62 11 -25 14 -181 15 -181 1 0 -20 -41 -50 -69 -50 -17 0 -33 -5
-36 -11 -4 -5 -17 -9 -28 -8 -37 2 -45 0 -43 -18 1 -19 -50 -36 -98 -31 -47 5
-36 22 23 35 62 13 65 15 56 42 -7 24 -51 45 -115 55 -25 4 -63 18 -85 30 -45
26 -50 54 -15 91 16 17 17 23 6 38 -7 9 -21 17 -30 17 -29 0 -17 27 28 64 24
20 48 36 53 36 5 0 33 21 63 46 48 41 54 50 56 89 1 37 -1 42 -17 38 -24 -7
-24 10 -2 36 15 18 19 19 50 6 46 -20 63 -11 58 30 -3 24 0 35 11 39 10 4 14
14 11 26 -6 24 20 54 39 46 8 -3 21 -9 29 -12 9 -4 15 -1 15 9 0 16 -29 28
-74 31 -37 2 -47 26 -12 27 34 2 39 3 52 11 6 4 27 8 47 10 22 1 37 7 37 15 0
17 17 17 23 1z m109 -30 c-7 -7 -12 -8 -12 -2 0 14 12 26 19 19 2 -3 -1 -11
-7 -17z m-282 -92 c0 -3 -4 -8 -10 -11 -5 -3 -10 -1 -10 4 0 6 5 11 10 11 6 0
10 -2 10 -4z m-244 -97 c4 -8 9 -8 17 0 15 15 24 14 31 -5 4 -10 -1 -25 -10
-35 -21 -23 -34 -24 -34 -4 0 8 -9 15 -20 15 -22 0 -23 1 -14 24 7 19 20 21
30 5z m1393 -85 c-14 -18 -24 -11 -15 11 3 9 11 13 16 10 8 -5 7 -11 -1 -21z
m-904 -13 c3 -5 1 -12 -5 -16 -5 -3 -10 1 -10 9 0 18 6 21 15 7z m65 -1 c0 -5
-5 -10 -11 -10 -5 0 -7 5 -4 10 3 6 8 10 11 10 2 0 4 -4 4 -10z m942 -42 c-8
-8 -9 -4 -5 13 4 13 8 18 11 10 2 -7 -1 -18 -6 -23z m118 -48 c0 -5 4 -9 9 -7
5 1 8 -2 8 -8 -1 -5 -6 -9 -11 -7 -4 1 -14 -5 -21 -14 -10 -15 -11 -13 -7 14
4 29 22 46 22 22z m-3255 -100 c3 -5 2 -10 -4 -10 -5 0 -13 5 -16 10 -3 6 -2
10 4 10 5 0 13 -4 16 -10z m2655 -5 c0 -8 -4 -15 -10 -15 -5 0 -10 7 -10 15 0
8 5 15 10 15 6 0 10 -7 10 -15z m-2591 -31 c14 -12 -19 -1 -35 12 -18 14 -18
14 6 3 14 -6 27 -13 29 -15z m2621 17 c0 -5 3 -16 6 -25 3 -9 2 -16 -4 -16 -5
0 -12 11 -14 25 -3 14 -1 25 3 25 5 0 9 -4 9 -9z m624 -6 c-4 -8 -11 -15 -16
-15 -6 0 -5 6 2 15 7 8 14 15 16 15 2 0 1 -7 -2 -15z m-644 -15 c0 -5 -5 -10
-11 -10 -5 0 -7 5 -4 10 3 6 8 10 11 10 2 0 4 -4 4 -10z m87 -12 c-3 -8 -6 -5
-6 6 -1 11 2 17 5 13 3 -3 4 -12 1 -19z m-29 -8 c-14 -22 -24 -19 -15 5 4 8
11 15 17 15 6 0 6 -7 -2 -20z m132 -145 c0 -27 -4 -31 -22 -30 -15 1 -24 9
-26 23 -3 17 0 20 14 15 13 -5 16 -3 12 9 -4 9 0 15 8 15 9 0 14 -11 14 -32z
m-2443 9 c-3 -3 -12 -4 -19 -1 -8 3 -5 6 6 6 11 1 17 -2 13 -5z m2383 -20 c0
-8 -4 -14 -10 -14 -5 0 -10 9 -10 21 0 11 5 17 10 14 6 -3 10 -13 10 -21z
m-2300 6 c20 -6 21 -8 5 -8 -11 0 -31 4 -45 8 -20 6 -21 8 -5 8 11 0 31 -4 45
-8z m2385 -9 c3 -5 1 -12 -5 -16 -5 -3 -10 1 -10 9 0 18 6 21 15 7z m-491
-111 c-5 -5 -15 -5 -23 -1 -11 7 -11 12 1 30 l13 21 9 -20 c6 -13 6 -24 0 -30z
m-780 11 c17 -19 17 -20 -3 -30 -13 -7 -28 -8 -45 -1 -32 12 -33 28 -3 40 31
12 32 12 51 -9z m693 13 c-3 -3 -12 -4 -19 -1 -8 3 -5 6 6 6 11 1 17 -2 13 -5z
m1 -33 c9 -5 26 -12 36 -16 10 -3 17 -8 14 -11 -7 -7 -88 19 -88 28 0 11 17
10 38 -1z m441 5 c-2 -2 -31 -6 -64 -9 -37 -3 -51 -2 -35 3 25 8 107 13 99 6z
m-265 -22 c24 -9 19 -24 -9 -24 -18 0 -23 4 -19 15 7 17 7 17 28 9z m111 -4
c-16 -4 -43 -8 -60 -8 -29 0 -29 0 -5 8 14 4 41 8 60 8 l35 0 -30 -8z m5 -40
c0 -24 -28 -27 -56 -4 -18 14 -17 15 14 11 17 -2 32 0 32 5 0 4 2 8 5 8 3 0 5
-9 5 -20z m-155 0 c3 -5 1 -10 -4 -10 -6 0 -11 5 -11 10 0 6 2 10 4 10 3 0 8
-4 11 -10z m80 -18 c-3 -3 -11 0 -18 7 -9 10 -8 11 6 5 10 -3 15 -9 12 -12z
m803 -239 c-10 -2 -28 -2 -40 0 -13 2 -5 4 17 4 22 1 32 -1 23 -4z m59 1 c-3
-3 -12 -4 -19 -1 -8 3 -5 6 6 6 11 1 17 -2 13 -5z m-394 -111 c-7 -2 -19 -2
-25 0 -7 3 -2 5 12 5 14 0 19 -2 13 -5z m75 -10 c-10 -2 -26 -2 -35 0 -10 3
-2 5 17 5 19 0 27 -2 18 -5z m55 -10 c-7 -2 -19 -2 -25 0 -7 3 -2 5 12 5 14 0
19 -2 13 -5z m114 -19 c-3 -3 -12 -4 -19 -1 -8 3 -5 6 6 6 11 1 17 -2 13 -5z
m56 -11 c-7 -2 -19 -2 -25 0 -7 3 -2 5 12 5 14 0 19 -2 13 -5z"/>
<path d="M1004 2922 c-17 -11 -13 -40 8 -45 10 -3 16 -1 12 4 -3 5 0 9 5 9 6
0 11 5 11 10 0 6 -7 10 -16 10 -8 0 -12 5 -9 10 7 12 4 12 -11 2z"/>
<path d="M1365 1990 c3 -5 8 -10 11 -10 2 0 4 5 4 10 0 6 -5 10 -11 10 -5 0
-7 -4 -4 -10z"/>
<path d="M3270 1825 c0 -8 9 -15 20 -15 11 0 20 2 20 5 0 2 -9 9 -20 15 -16 9
-20 8 -20 -5z"/>
<path d="M3660 1781 c0 -5 5 -13 10 -16 6 -3 10 -2 10 4 0 5 -4 13 -10 16 -5
3 -10 2 -10 -4z"/>
<path d="M3673 1722 c-1 -22 0 -24 9 -8 6 10 6 22 2 26 -5 5 -10 -3 -11 -18z"/>
<path d="M3731 1725 c-1 -25 15 -52 26 -42 4 5 2 11 -4 15 -6 4 -13 16 -16 27
l-5 20 -1 -20z"/>
<path d="M3765 1710 c3 -5 11 -10 16 -10 6 0 7 5 4 10 -3 6 -11 10 -16 10 -6
0 -7 -4 -4 -10z"/>
<path d="M3800 1686 c0 -9 5 -16 10 -16 6 0 10 4 10 9 0 6 -4 13 -10 16 -5 3
-10 -1 -10 -9z"/>
<path d="M2660 1400 c0 -5 5 -10 10 -10 6 0 10 5 10 10 0 6 -4 10 -10 10 -5 0
-10 -4 -10 -10z"/>
<path d="M2493 1223 c-21 -8 -15 -22 7 -16 11 3 20 9 20 14 0 10 -8 10 -27 2z"/>
<path d="M2540 1220 c0 -5 5 -10 10 -10 6 0 10 5 10 10 0 6 -4 10 -10 10 -5 0
-10 -4 -10 -10z"/>
<path d="M2600 1219 c0 -5 5 -7 10 -4 6 3 10 8 10 11 0 2 -4 4 -10 4 -5 0 -10
-5 -10 -11z"/>
<path d="M2453 1172 c-13 -2 -23 -8 -23 -13 0 -9 37 -3 49 7 8 7 -4 10 -26 6z"/>
<path d="M2535 1170 c-3 -5 -1 -10 4 -10 6 0 11 5 11 10 0 6 -2 10 -4 10 -3 0
-8 -4 -11 -10z"/>
<path d="M2552 1100 c0 -14 2 -19 5 -12 2 6 2 18 0 25 -3 6 -5 1 -5 -13z"/>
<path d="M2253 904 c-35 -17 -43 -34 -18 -34 8 0 15 4 15 10 0 5 12 16 28 24
37 20 15 20 -25 0z"/>
<path d="M2558 833 c7 -3 16 -2 19 1 4 3 -2 6 -13 5 -11 0 -14 -3 -6 -6z"/>
<path d="M2535 780 c-4 -16 -11 -30 -16 -30 -9 0 -3 -55 8 -73 3 -5 17 -7 31
-4 14 3 34 0 43 -6 26 -16 38 2 14 19 -19 14 -19 15 3 20 29 8 28 18 -2 32
-46 21 -55 75 -11 58 8 -3 15 -1 15 4 0 6 -18 10 -39 10 -36 0 -40 -3 -46 -30z"/>
<path d="M2660 671 c0 -6 4 -13 10 -16 6 -3 7 1 4 9 -7 18 -14 21 -14 7z"/>
<path d="M2923 663 c9 -2 23 -2 30 0 6 3 -1 5 -18 5 -16 0 -22 -2 -12 -5z"/>
<path d="M3030 660 c-13 -8 -12 -10 3 -10 9 0 17 5 17 10 0 12 -1 12 -20 0z"/>
<path d="M3070 630 c0 -5 5 -10 10 -10 6 0 10 5 10 10 0 6 -4 10 -10 10 -5 0
-10 -4 -10 -10z"/>
<path d="M3328 3053 c7 -3 16 -2 19 1 4 3 -2 6 -13 5 -11 0 -14 -3 -6 -6z"/>
<path d="M1805 3020 c3 -5 8 -10 11 -10 2 0 4 5 4 10 0 6 -5 10 -11 10 -5 0
-7 -4 -4 -10z"/>
<path d="M1780 2979 c0 -5 5 -7 10 -4 6 3 10 8 10 11 0 2 -4 4 -10 4 -5 0 -10
-5 -10 -11z"/>
<path d="M3960 2980 c0 -5 5 -10 10 -10 6 0 10 5 10 10 0 6 -4 10 -10 10 -5 0
-10 -4 -10 -10z"/>
<path d="M2100 2949 c0 -5 5 -7 10 -4 6 3 10 8 10 11 0 2 -4 4 -10 4 -5 0 -10
-5 -10 -11z"/>
<path d="M1980 2919 c-23 -62 -23 -70 4 -63 13 3 27 1 30 -5 13 -20 42 -11 59
19 17 28 17 29 -2 40 -14 7 -22 7 -27 -2 -5 -8 -14 -2 -29 16 l-22 28 -13 -33z"/>
<path d="M2096 2875 c-16 -17 -17 -20 -19 -57 -2 -28 30 -49 43 -28 12 19 13
70 1 88 -6 11 -11 10 -25 -3z"/>
<path d="M927 2769 c7 -7 15 -10 18 -7 3 3 -2 9 -12 12 -14 6 -15 5 -6 -5z"/>
<path d="M793 2744 c-3 -8 -3 -18 1 -21 3 -4 6 -1 6 5 0 6 7 9 15 6 8 -4 15
-2 15 4 0 17 -30 23 -37 6z"/>
<path d="M1068 2603 c7 -3 16 -2 19 1 4 3 -2 6 -13 5 -11 0 -14 -3 -6 -6z"/>
<path d="M1105 2530 c3 -5 18 -10 32 -10 32 0 28 5 -10 14 -19 4 -26 3 -22 -4z"/>
<path d="M2980 2340 c0 -5 7 -7 15 -4 8 4 15 8 15 10 0 2 -7 4 -15 4 -8 0 -15
-4 -15 -10z"/>
<path d="M2928 2323 c6 -2 18 -2 25 0 6 3 1 5 -13 5 -14 0 -19 -2 -12 -5z"/>
<path d="M830 2310 c0 -5 5 -10 10 -10 6 0 10 5 10 10 0 6 -4 10 -10 10 -5 0
-10 -4 -10 -10z"/>
<path d="M1545 2280 c3 -5 8 -10 11 -10 2 0 4 5 4 10 0 6 -5 10 -11 10 -5 0
-7 -4 -4 -10z"/>
<path d="M1515 2230 c3 -5 10 -10 16 -10 5 0 9 5 9 10 0 6 -7 10 -16 10 -8 0
-12 -4 -9 -10z"/>
<path d="M1160 2219 c0 -5 9 -9 20 -9 11 0 20 2 20 4 0 2 -9 6 -20 9 -11 3
-20 1 -20 -4z"/>
<path d="M2035 2190 c-3 -5 1 -10 10 -10 9 0 13 5 10 10 -3 6 -8 10 -10 10 -2
0 -7 -4 -10 -10z"/>
<path d="M1738 2173 c7 -3 16 -2 19 1 4 3 -2 6 -13 5 -11 0 -14 -3 -6 -6z"/>
<path d="M1235 2150 c-3 -5 -1 -10 4 -10 6 0 11 5 11 10 0 6 -2 10 -4 10 -3 0
-8 -4 -11 -10z"/>
<path d="M1265 2150 c-3 -5 -1 -10 4 -10 6 0 11 5 11 10 0 6 -2 10 -4 10 -3 0
-8 -4 -11 -10z"/>
<path d="M1320 2151 c0 -5 5 -13 10 -16 6 -3 10 -2 10 4 0 5 -4 13 -10 16 -5
3 -10 2 -10 -4z"/>
<path d="M1890 2150 c0 -5 5 -10 10 -10 6 0 10 5 10 10 0 6 -4 10 -10 10 -5 0
-10 -4 -10 -10z"/>
<path d="M1290 2139 c0 -5 5 -7 10 -4 6 3 10 8 10 11 0 2 -4 4 -10 4 -5 0 -10
-5 -10 -11z"/>
<path d="M1970 2113 c0 -21 2 -24 15 -13 8 7 15 16 15 20 0 4 -7 10 -15 14
-11 4 -15 -2 -15 -21z"/>
<path d="M1885 2110 c3 -5 8 -10 11 -10 2 0 4 5 4 10 0 6 -5 10 -11 10 -5 0
-7 -4 -4 -10z"/>
<path d="M2651 1884 c0 -11 3 -14 6 -6 3 7 2 16 -1 19 -3 4 -6 -2 -5 -13z"/>
<path d="M2621 1874 c0 -11 3 -14 6 -6 3 7 2 16 -1 19 -3 4 -6 -2 -5 -13z"/>
<path d="M2621 1824 c0 -11 3 -14 6 -6 3 7 2 16 -1 19 -3 4 -6 -2 -5 -13z"/>
<path d="M2882 1685 c6 -14 15 -25 19 -25 5 0 3 11 -3 25 -6 14 -15 25 -19 25
-5 0 -3 -11 3 -25z"/>
<path d="M3632 1029 c-15 -23 -15 -29 -2 -29 6 0 10 6 10 14 0 8 5 16 12 18 7
3 8 7 2 11 -5 3 -15 -3 -22 -14z"/>
<path d="M3910 869 c0 -5 5 -7 10 -4 6 3 10 8 10 11 0 2 -4 4 -10 4 -5 0 -10
-5 -10 -11z"/>
<path d="M3940 850 c0 -5 4 -10 9 -10 6 0 13 5 16 10 3 6 -1 10 -9 10 -9 0
-16 -4 -16 -10z"/>
</g>
</svg>
